<svg width="185pt" height="57pt" viewBox="0 0 185 57" xmlns="http://www.w3.org/2000/svg"><g stroke-linecap="round" fill-rule="evenodd" fill="#000000" stroke="#999" stroke-width="2" paint-order="stroke"><path d="M 184.277 19.897 L 180.908 34.302 A 34.727 34.727 0 0 1 173.413 49.097 A 24.05 24.05 0 0 1 168.96 53.19 A 20.008 20.008 0 0 1 164.526 55.542 A 14.832 14.832 0 0 1 159.155 56.519 Q 156.958 56.519 155.737 55.591 A 1.52 1.52 0 0 1 155.493 55.352 Q 155.345 55.169 155.297 54.965 A 0.884 0.884 0 0 1 155.273 54.761 A 1.205 1.205 0 0 1 155.414 54.204 Q 155.498 54.04 155.634 53.879 A 2.188 2.188 0 0 1 155.652 53.857 A 4.574 4.574 0 0 1 156.07 53.435 Q 156.289 53.239 156.552 53.046 A 7.674 7.674 0 0 1 156.628 52.991 A 15.832 15.832 0 0 1 157.407 52.47 A 19.6 19.6 0 0 1 157.959 52.136 A 32.818 32.818 0 0 1 159.222 51.435 A 29.9 29.9 0 0 1 159.399 51.343 Q 161.218 50.397 161.616 50.102 A 1.47 1.47 0 0 0 161.621 50.098 Q 160.742 50.635 160.742 51.27 Q 160.742 51.892 161.224 52.245 A 1.435 1.435 0 0 0 161.243 52.258 A 3.948 3.948 0 0 0 161.921 52.64 A 5.043 5.043 0 0 0 162.427 52.832 A 8.157 8.157 0 0 0 164.411 53.221 A 9.655 9.655 0 0 0 165.125 53.247 A 5.505 5.505 0 0 0 167.752 52.571 A 6.521 6.521 0 0 0 167.92 52.478 A 8.796 8.796 0 0 0 170.123 50.673 A 10.042 10.042 0 0 0 170.325 50.439 A 13.685 13.685 0 0 0 171.917 48.054 A 15.589 15.589 0 0 0 172.168 47.559 Q 172.949 45.947 173.56 44.238 Q 174.231 42.297 175.255 38.119 A 198.372 198.372 0 0 0 175.293 37.964 A 40.595 40.595 0 0 1 171.974 39.923 Q 168.584 41.697 165.962 42.035 A 9.325 9.325 0 0 1 164.771 42.114 Q 160.62 42.114 160.62 38.013 A 9.297 9.297 0 0 1 160.826 36.095 A 10.488 10.488 0 0 1 160.889 35.815 L 162.915 27.173 Q 163.457 24.674 163.476 23.609 A 4.23 4.23 0 0 0 163.477 23.535 Q 163.477 21.292 161.84 21.089 A 2.777 2.777 0 0 0 161.499 21.069 A 4.574 4.574 0 0 0 160.752 21.135 Q 160.379 21.197 159.969 21.317 A 8.586 8.586 0 0 0 159.668 21.411 Q 162.231 19.58 163.232 18.994 A 13.31 13.31 0 0 1 164.612 18.312 Q 166.069 17.7 167.261 17.7 A 3.002 3.002 0 0 1 168.05 17.795 Q 169.287 18.133 169.287 19.678 A 4.307 4.307 0 0 1 169.244 20.204 Q 169.087 21.404 168.365 24.42 A 163.089 163.089 0 0 1 168.237 24.951 Q 167.376 28.497 166.975 30.218 A 125.844 125.844 0 0 0 166.821 30.884 Q 166.352 32.875 166.243 34.049 A 6.943 6.943 0 0 0 166.211 34.68 Q 166.211 35.586 166.403 36.252 A 3.377 3.377 0 0 0 166.553 36.67 A 3.152 3.152 0 0 0 167.086 37.513 A 2.833 2.833 0 0 0 167.529 37.915 Q 168.674 38.792 170.985 38.794 A 11.974 11.974 0 0 0 170.996 38.794 Q 173.399 38.794 175.506 36.658 A 10.783 10.783 0 0 0 175.659 36.499 L 178.491 24.292 A 12.727 12.727 0 0 0 178.619 23.695 Q 178.723 23.142 178.734 22.747 A 3.285 3.285 0 0 0 178.735 22.656 A 2.543 2.543 0 0 0 178.679 22.097 Q 178.469 21.167 177.466 21.167 Q 176.855 21.167 176.27 21.411 A 1048.011 1048.011 0 0 0 176.745 21.074 Q 176.958 20.923 177.196 20.754 A 2133.519 2133.519 0 0 0 177.698 20.398 Q 178.54 19.8 179.468 19.238 Q 181.173 18.185 182.306 17.958 A 2.963 2.963 0 0 1 182.886 17.896 Q 184.132 17.896 184.318 18.885 A 2.047 2.047 0 0 1 184.351 19.263 Q 184.351 19.58 184.277 19.897 Z M 100.342 42.749 L 100.391 37.622 L 100.391 36.133 Q 100.391 24.438 97.803 21.704 Q 97.411 21.312 97.019 21.182 A 1.228 1.228 0 0 0 96.631 21.118 A 3.526 3.526 0 0 0 94.916 21.569 A 4.164 4.164 0 0 0 94.849 21.606 A 28.259 28.259 0 0 1 96.843 20.057 Q 98.876 18.631 100.469 18.202 A 4.964 4.964 0 0 1 101.758 18.018 A 1.48 1.48 0 0 1 102.842 18.506 Q 103.31 18.983 103.654 19.928 A 8.049 8.049 0 0 1 103.76 20.239 Q 104.673 23.081 105.148 28.338 A 97.252 97.252 0 0 1 105.322 30.566 Q 105.516 33.494 105.448 35.498 A 22.86 22.86 0 0 1 105.396 36.475 A 47.583 47.583 0 0 1 105.978 35.594 Q 106.242 35.203 106.542 34.774 A 93.315 93.315 0 0 1 107.178 33.875 Q 108.252 32.373 109.253 30.664 Q 110.254 28.955 110.974 27.148 Q 111.694 25.342 111.694 23.779 A 4.88 4.88 0 0 0 110.791 20.923 A 5.302 5.302 0 0 0 110.947 20.828 Q 111.197 20.67 111.653 20.359 A 70.962 70.962 0 0 0 111.951 20.154 Q 112.817 19.556 113.367 19.189 A 28.954 28.954 0 0 1 113.901 18.842 A 23.197 23.197 0 0 1 114.404 18.53 A 19.223 19.223 0 0 1 114.778 18.29 Q 115.524 17.822 115.723 17.822 A 0.265 0.265 0 0 1 115.887 17.885 Q 116.042 18.006 116.187 18.359 Q 116.406 18.896 116.565 19.592 Q 116.724 20.288 116.833 20.947 A 391.359 391.359 0 0 1 116.891 21.296 Q 116.984 21.857 117.151 22.871 A 4611.626 4611.626 0 0 1 117.261 23.535 A 126.488 126.488 0 0 1 118.045 28.995 Q 118.357 31.602 118.496 33.873 A 58.375 58.375 0 0 1 118.604 36.646 A 126.689 126.689 0 0 0 120.616 33.997 Q 122.458 31.499 123.551 29.696 A 21.911 21.911 0 0 0 124.438 28.101 A 17.72 17.72 0 0 0 125.127 26.54 Q 125.757 24.882 125.757 23.633 A 3.808 3.808 0 0 0 125.671 22.795 Q 125.55 22.259 125.258 21.871 A 2.101 2.101 0 0 0 124.78 21.411 Q 124.438 21.191 124.048 21.191 A 2.557 2.557 0 0 0 123.472 21.261 Q 123.13 21.34 122.754 21.509 Q 123.285 21.262 123.92 20.846 A 14.947 14.947 0 0 0 124.292 20.593 A 92.383 92.383 0 0 1 126.025 19.409 A 24.479 24.479 0 0 1 126.792 18.903 Q 128.349 17.92 129.004 17.92 A 4.964 4.964 0 0 1 129.4 17.935 Q 129.904 17.975 130.164 18.127 A 1.482 1.482 0 0 1 130.713 18.677 A 2.835 2.835 0 0 1 131.021 19.465 Q 131.101 19.806 131.121 20.201 A 5.324 5.324 0 0 1 131.128 20.471 A 5.34 5.34 0 0 1 131.039 21.407 Q 130.956 21.869 130.797 22.385 A 11.393 11.393 0 0 1 130.579 23.022 A 18.774 18.774 0 0 1 129.76 24.88 A 23.29 23.29 0 0 1 129.126 26.05 A 37.951 37.951 0 0 1 127.505 28.605 A 42.69 42.69 0 0 1 127.087 29.199 A 78.491 78.491 0 0 1 124.792 32.251 A 101.136 101.136 0 0 1 123.376 34.001 A 84.141 84.141 0 0 1 122.559 34.973 A 4335.72 4335.72 0 0 0 122.049 35.57 Q 121.552 36.152 121.171 36.598 A 1320.115 1320.115 0 0 0 120.85 36.975 A 60.181 60.181 0 0 0 120.327 37.596 Q 120.091 37.881 119.885 38.138 A 33.555 33.555 0 0 0 119.751 38.306 A 14.411 14.411 0 0 1 119.357 38.783 Q 119.111 39.068 118.884 39.294 A 4.208 4.208 0 0 1 118.544 39.597 Q 118.213 39.863 117.749 40.149 A 57.694 57.694 0 0 1 116.983 40.613 A 72.353 72.353 0 0 1 116.15 41.101 A 102.59 102.59 0 0 1 114.671 41.94 A 92.347 92.347 0 0 1 114.465 42.053 A 110.539 110.539 0 0 0 114.082 42.266 Q 113.712 42.472 113.449 42.623 A 24.934 24.934 0 0 0 113.232 42.749 Q 113.159 34.546 112.671 29.785 Q 110.971 32.408 109.506 34.444 A 77.989 77.989 0 0 1 109.033 35.095 Q 107.677 36.94 107.111 37.758 A 18.562 18.562 0 0 0 106.897 38.074 Q 106.455 38.742 106.129 39.116 A 4.318 4.318 0 0 1 106.079 39.172 A 3.93 3.93 0 0 1 105.551 39.662 A 3.473 3.473 0 0 1 105.347 39.807 A 27.563 27.563 0 0 1 105.033 40.01 Q 104.755 40.187 104.419 40.393 A 36.755 36.755 0 0 1 103.86 40.729 A 44.522 44.522 0 0 1 103.259 41.077 A 322.848 322.848 0 0 0 102.353 41.594 A 286.129 286.129 0 0 0 102.063 41.76 A 419.668 419.668 0 0 0 101.517 42.075 A 306.212 306.212 0 0 0 101.025 42.358 Q 100.579 42.617 100.359 42.74 A 14.04 14.04 0 0 1 100.342 42.749 Z M 95.142 0 L 87.012 34.912 A 8.708 8.708 0 0 0 86.81 35.901 A 6.56 6.56 0 0 0 86.743 36.816 Q 86.743 38.745 89.087 38.745 A 7.452 7.452 0 0 0 90.552 38.599 Q 89.795 39.111 88.965 39.722 A 17.529 17.529 0 0 1 87.231 40.845 A 11.656 11.656 0 0 1 85.904 41.514 Q 84.595 42.065 83.496 42.065 Q 81.763 42.065 81.323 41.187 A 1.606 1.606 0 0 1 81.165 40.728 Q 81.128 40.533 81.128 40.311 A 2.555 2.555 0 0 1 81.128 40.308 Q 81.128 39.502 81.421 38.452 Q 77.501 40.942 75.661 41.56 A 6.005 6.005 0 0 1 75.452 41.626 A 18.341 18.341 0 0 1 74.383 41.909 Q 73.379 42.141 72.648 42.161 A 4.966 4.966 0 0 1 72.51 42.163 A 10.495 10.495 0 0 1 70.451 41.974 Q 69.241 41.732 68.307 41.179 A 5.54 5.54 0 0 1 67.285 40.405 A 5.596 5.596 0 0 1 65.817 37.944 Q 65.545 37.05 65.477 35.97 A 11.771 11.771 0 0 1 65.454 35.229 A 13.975 13.975 0 0 1 66.93 29.06 A 18.688 18.688 0 0 1 68.457 26.489 A 22.165 22.165 0 0 1 75.02 20.404 A 25.763 25.763 0 0 1 75.708 19.995 A 20.821 20.821 0 0 1 80.066 18.131 A 16.343 16.343 0 0 1 84.668 17.456 Q 85.571 17.456 86.304 17.627 L 88.159 9.619 A 14.736 14.736 0 0 0 88.327 8.873 Q 88.477 8.105 88.477 7.568 A 2.993 2.993 0 0 0 88.406 6.887 Q 88.188 5.958 87.297 5.796 A 2.276 2.276 0 0 0 86.89 5.762 A 4.942 4.942 0 0 0 85.791 5.884 L 84.717 6.128 Q 87.28 4.492 89.832 2.881 A 45.74 45.74 0 0 1 95.142 0 Z M 9.033 9.863 L 3.662 9.863 A 200.982 200.982 0 0 1 4.838 9.085 Q 8.642 6.587 9.162 6.544 A 0.209 0.209 0 0 1 9.18 6.543 L 20.703 6.519 A 28.409 28.409 0 0 1 22.2 6.555 Q 23.657 6.632 24.606 6.872 A 5.003 5.003 0 0 1 25.317 7.104 A 6.786 6.786 0 0 1 26.265 7.589 Q 26.775 7.905 27.147 8.286 A 3.754 3.754 0 0 1 27.417 8.594 Q 27.946 9.269 28.08 10.407 A 7.068 7.068 0 0 1 28.125 11.23 Q 28.125 12.964 27.368 14.441 A 10.307 10.307 0 0 1 25.391 17.114 A 12.826 12.826 0 0 1 24.323 18.041 Q 23.198 18.925 21.47 20.002 A 65.128 65.128 0 0 1 19.775 21.021 A 11.832 11.832 0 0 1 22.155 21.514 Q 24.885 22.405 26.025 24.634 Q 26.534 25.629 26.582 27.026 A 8.591 8.591 0 0 1 26.587 27.319 A 6.985 6.985 0 0 1 26.154 29.707 A 8.542 8.542 0 0 1 25.818 30.505 Q 25.049 32.104 23.767 33.557 A 20.613 20.613 0 0 1 21.244 35.959 A 23.113 23.113 0 0 1 20.837 36.279 A 29.491 29.491 0 0 1 17.432 38.55 A 29.354 29.354 0 0 1 13.913 40.274 Q 10.878 41.501 8.203 41.626 A 71.234 71.234 0 0 1 5.566 41.675 L 0 41.675 Q 1.262 40.287 1.69 39.642 A 2.96 2.96 0 0 0 1.807 39.453 Q 2.344 38.525 2.783 36.646 L 9.033 9.863 Z M 53.101 27.173 L 50.928 36.523 A 3.454 3.454 0 0 0 50.83 36.996 A 2.736 2.736 0 0 0 50.806 37.354 A 2.442 2.442 0 0 0 50.866 37.925 Q 51.094 38.867 52.173 38.867 A 2.708 2.708 0 0 0 52.791 38.792 A 3.702 3.702 0 0 0 53.32 38.623 A 12.39 12.39 0 0 0 52.153 39.571 A 11.041 11.041 0 0 0 51.904 39.807 A 13.161 13.161 0 0 1 50.586 40.942 Q 49.023 42.163 47.192 42.163 A 2.128 2.128 0 0 1 46.362 42.004 A 2.023 2.023 0 0 1 45.874 41.711 A 2.261 2.261 0 0 1 45.615 41.471 Q 45.49 41.332 45.416 41.193 A 0.844 0.844 0 0 1 45.312 40.796 Q 45.313 40.259 45.361 40.015 L 48.633 25.952 Q 48.804 25.22 49.023 24.463 Q 49.243 23.706 49.243 22.925 A 1.928 1.928 0 0 0 49.089 22.124 Q 48.716 21.299 47.44 21.167 A 5.044 5.044 0 0 0 46.924 21.143 Q 45.874 21.143 44.751 21.533 A 4.161 4.161 0 0 0 45.268 21.311 Q 45.801 21.042 46.483 20.557 A 17.062 17.062 0 0 0 46.753 20.361 A 44.021 44.021 0 0 1 47.677 19.673 Q 48.948 18.755 49.61 18.455 A 2.364 2.364 0 0 1 49.854 18.359 A 13.02 13.02 0 0 1 50.895 18.032 Q 51.381 17.903 51.81 17.838 A 5.412 5.412 0 0 1 52.612 17.773 A 3.314 3.314 0 0 1 53.418 17.862 Q 54.462 18.125 54.664 19.162 A 2.834 2.834 0 0 1 54.712 19.702 A 3.917 3.917 0 0 1 54.689 20.106 Q 54.637 20.605 54.468 21.313 A 173.124 173.124 0 0 0 55.193 20.834 Q 55.564 20.589 55.973 20.315 A 295.033 295.033 0 0 0 56.25 20.129 A 37.676 37.676 0 0 1 58.301 18.848 A 17.667 17.667 0 0 1 59.63 18.156 Q 61.298 17.383 62.451 17.383 A 3.476 3.476 0 0 1 63.966 17.737 A 4.277 4.277 0 0 1 64.307 17.92 Q 66.037 18.929 66.502 18.945 A 0.426 0.426 0 0 0 66.516 18.945 A 3.239 3.239 0 0 0 67.02 18.908 A 2.642 2.642 0 0 0 67.346 18.835 A 10.584 10.584 0 0 0 68.066 18.597 A 11.536 11.536 0 0 0 68.115 18.579 A 13.762 13.762 0 0 0 69.159 18.112 A 12.031 12.031 0 0 0 69.482 17.944 Q 67.017 20.825 63.574 21.924 Q 62.427 22.29 61.597 22.29 Q 61.025 22.29 60.61 22.174 A 2.019 2.019 0 0 1 60.266 22.046 A 17.474 17.474 0 0 1 59.317 21.545 A 19.099 19.099 0 0 1 59.253 21.509 A 10.972 10.972 0 0 0 58.61 21.167 Q 57.984 20.863 57.533 20.769 A 1.82 1.82 0 0 0 57.166 20.728 A 2.326 2.326 0 0 0 56.642 20.783 A 1.648 1.648 0 0 0 55.981 21.094 A 3.66 3.66 0 0 0 55.506 21.548 A 4.957 4.957 0 0 0 55.115 22.058 A 8.912 8.912 0 0 0 54.552 23.024 A 10.291 10.291 0 0 0 54.382 23.376 A 14.537 14.537 0 0 0 53.809 24.829 Q 53.366 26.057 53.172 26.853 A 7.929 7.929 0 0 0 53.101 27.173 Z M 155.396 18.896 L 151.66 34.912 A 20.923 20.923 0 0 0 151.543 35.507 Q 151.433 36.11 151.403 36.525 A 4.037 4.037 0 0 0 151.392 36.816 Q 151.392 38.745 153.735 38.745 A 7.212 7.212 0 0 0 155.2 38.599 Q 154.443 39.111 153.613 39.722 A 19.298 19.298 0 0 1 151.904 40.845 Q 149.78 42.065 148.169 42.065 Q 146.411 42.065 145.947 41.187 Q 145.787 40.842 145.777 40.369 A 2.998 2.998 0 0 1 145.776 40.308 Q 145.776 39.502 146.069 38.452 Q 145.166 39.038 144.202 39.685 A 25.89 25.89 0 0 1 142.212 40.894 Q 140.457 41.825 138.952 42.073 A 6.521 6.521 0 0 1 137.891 42.163 A 9.679 9.679 0 0 1 135.313 41.85 Q 131.274 40.732 131.274 35.62 A 15.788 15.788 0 0 1 132.758 29.015 A 19.939 19.939 0 0 1 133.911 26.855 Q 136.45 22.729 140.576 20.142 A 17.798 17.798 0 0 1 145.09 18.066 A 14.982 14.982 0 0 1 149.316 17.456 A 11.403 11.403 0 0 1 151.549 17.667 A 9.547 9.547 0 0 1 152.942 18.054 A 110.549 110.549 0 0 0 153.713 18.331 Q 154.791 18.713 155.396 18.896 Z M 40.869 17.114 L 36.865 34.351 Q 36.719 34.985 36.56 35.645 Q 36.401 36.304 36.401 36.963 Q 36.401 38.53 38.302 38.791 A 6.162 6.162 0 0 0 39.136 38.843 A 6.703 6.703 0 0 0 39.764 38.811 Q 40.207 38.769 40.723 38.672 A 60.497 60.497 0 0 0 39.523 39.519 A 68.471 68.471 0 0 0 39.111 39.819 A 19.298 19.298 0 0 1 37.402 40.942 Q 35.898 41.82 34.591 42.054 A 5.243 5.243 0 0 1 33.667 42.139 A 5.712 5.712 0 0 1 32.825 42.082 Q 31.826 41.932 31.38 41.391 A 1.461 1.461 0 0 1 31.177 41.064 A 2.244 2.244 0 0 1 31.007 40.451 A 2.885 2.885 0 0 1 30.981 40.063 A 7.645 7.645 0 0 1 31.126 38.603 A 8.723 8.723 0 0 1 31.201 38.257 L 33.887 26.685 Q 34.204 25.415 34.204 24.683 A 2.915 2.915 0 0 0 34.133 24.01 Q 33.917 23.101 33.037 22.937 A 2.292 2.292 0 0 0 32.617 22.9 A 4.61 4.61 0 0 0 32.149 22.927 Q 31.689 22.975 31.056 23.106 A 21.637 21.637 0 0 0 30.444 23.242 Q 37.539 18.693 40.651 17.216 A 20.57 20.57 0 0 1 40.869 17.114 Z M 81.934 36.377 L 84.741 24.292 A 5.147 5.147 0 0 0 82.933 21.824 Q 81.412 20.728 78.906 20.728 A 6.416 6.416 0 0 0 73.753 23.117 A 9.4 9.4 0 0 0 72.754 24.585 Q 70.947 27.808 70.947 31.567 A 11.467 11.467 0 0 0 71.258 34.367 Q 72.178 38.009 75.818 38.703 A 9.972 9.972 0 0 0 77.686 38.867 Q 78.638 38.867 79.736 38.306 A 11.128 11.128 0 0 0 80.509 37.863 Q 81.712 37.102 81.924 36.412 A 1.102 1.102 0 0 0 81.934 36.377 Z M 146.582 36.377 L 149.39 24.292 A 7.442 7.442 0 0 0 148.805 23.06 Q 148.251 22.138 147.485 21.594 A 4.696 4.696 0 0 0 145.121 20.749 A 5.911 5.911 0 0 0 144.617 20.728 A 7.191 7.191 0 0 0 143.461 20.815 Q 142.825 20.919 142.301 21.145 A 3.907 3.907 0 0 0 141.895 21.35 A 7.114 7.114 0 0 0 140.183 22.748 A 8.16 8.16 0 0 0 139.966 22.998 A 11.142 11.142 0 0 0 138.722 24.85 A 12.781 12.781 0 0 0 138.477 25.33 A 17.802 17.802 0 0 0 137.427 28.027 A 21.132 21.132 0 0 0 136.807 30.693 A 15.747 15.747 0 0 0 136.597 33.203 A 8.002 8.002 0 0 0 136.887 35.462 Q 137.624 37.963 140.229 38.627 A 8.634 8.634 0 0 0 142.358 38.867 Q 143.163 38.867 144.096 38.445 A 6.752 6.752 0 0 0 144.385 38.306 A 11.128 11.128 0 0 0 145.157 37.863 Q 146.361 37.102 146.572 36.412 A 1.102 1.102 0 0 0 146.582 36.377 Z M 5.566 38.354 L 12.378 38.354 Q 16.345 38.354 18.538 36.446 A 6.996 6.996 0 0 0 20.386 33.838 A 8.284 8.284 0 0 0 21.02 30.699 A 9.41 9.41 0 0 0 21.021 30.591 A 10.055 10.055 0 0 0 20.973 29.579 Q 20.868 28.545 20.532 27.856 Q 20.044 26.855 19.214 26.196 A 6.633 6.633 0 0 0 17.582 25.252 A 7.606 7.606 0 0 0 17.31 25.146 A 12.472 12.472 0 0 0 15.188 24.586 A 13.741 13.741 0 0 0 15.039 24.561 A 17.565 17.565 0 0 0 13.833 24.406 Q 12.434 24.272 10.549 24.268 A 54.958 54.958 0 0 0 10.425 24.268 Q 9.888 26.514 9.375 28.735 A 1421.433 1421.433 0 0 1 9.129 29.798 Q 8.8 31.219 8.555 32.263 A 475.058 475.058 0 0 1 8.521 32.41 A 32.142 32.142 0 0 1 8.353 33.089 Q 8.171 33.796 8.007 34.266 A 6.465 6.465 0 0 1 7.898 34.558 Q 7.617 35.254 7.275 35.938 A 11.023 11.023 0 0 1 5.946 37.92 A 12.658 12.658 0 0 1 5.566 38.354 Z M 13.794 9.741 L 11.157 21.045 A 112.336 112.336 0 0 1 13.379 20.972 A 91.416 91.416 0 0 1 15.454 20.947 A 65.578 65.578 0 0 1 16.383 20.953 Q 17.67 20.972 18.311 21.045 A 5.947 5.947 0 0 0 20.848 19.62 Q 21.935 18.555 22.36 16.87 A 9.901 9.901 0 0 0 22.632 14.453 A 4.371 4.371 0 0 0 21.953 11.968 Q 20.432 9.692 15.503 9.692 A 29.189 29.189 0 0 0 13.846 9.738 A 26.897 26.897 0 0 0 13.794 9.741 Z M 39.063 3.564 L 44.58 0.244 A 82.442 82.442 0 0 1 44.321 1.747 Q 43.907 4.01 43.557 5.018 A 3.501 3.501 0 0 1 43.335 5.542 A 0.573 0.573 0 0 1 43.219 5.685 Q 42.903 5.987 41.836 6.602 A 31.319 31.319 0 0 1 41.663 6.702 A 624.847 624.847 0 0 0 40.979 7.091 Q 39.995 7.651 39.551 7.91 A 139.126 139.126 0 0 1 39.026 8.206 Q 38.363 8.577 38.007 8.765 A 10.452 10.452 0 0 1 37.817 8.862 Q 38.623 6.299 39.063 3.564 Z" vector-effect="non-scaling-stroke"/></g></svg>
