<svg width="20mm" height="20mm" viewBox="0 0 20 20" xmlns="http://www.w3.org/2000/svg"><path style="fill:#fff;fill-opacity:1;stroke-width:15.1181;stroke-linecap:round;stroke-linejoin:round;paint-order:stroke markers fill" d="M0 37.795V75.59h75.59V37.795H0zm19.281 3.78H56.31a18.898 18.898 0 0 1-1.2 3.779H20.48a18.898 18.898 0 0 1-1.199-3.78zm3.412 7.56h30.203a18.898 18.898 0 0 1-3.792 3.78H26.486a18.898 18.898 0 0 1-3.793-3.78zM37.795 18.898a18.898 18.898 0 0 0-18.5 15.118h37.014a18.898 18.898 0 0 0-18.514-15.118z" transform="scale(.26458)"/></svg>