<svg width="20mm" height="20mm" viewBox="0 0 20 20" xmlns="http://www.w3.org/2000/svg"><path style="fill:#030303;stroke-width:4;stroke-linecap:round;stroke-linejoin:round;paint-order:stroke markers fill;fill-opacity:1" d="M0 0h20v20H0z"/><path style="fill:#fff;stroke-width:4;stroke-linecap:round;stroke-linejoin:round;paint-order:stroke markers fill;fill-opacity:1" d="M0 10h20v10H0z"/><path style="fill:#fff;fill-opacity:1;stroke-width:15.1181;stroke-linecap:round;stroke-linejoin:round;paint-order:stroke markers fill" d="M37.795 18.898a18.898 18.898 0 0 0-18.5 15.118h37.014a18.898 18.898 0 0 0-18.514-15.118z" transform="scale(.26458)"/><path style="fill:#010101;fill-opacity:1;stroke-width:15.1181;stroke-linecap:round;stroke-linejoin:round;paint-order:stroke markers fill" d="M19.281 41.574a18.898 18.898 0 0 0 1.2 3.78h34.628a18.898 18.898 0 0 0 1.2-3.78H19.28zm3.412 7.56a18.898 18.898 0 0 0 3.793 3.78h22.618a18.898 18.898 0 0 0 3.792-3.78H22.693z" transform="scale(.26458)"/></svg>