<svg width="20mm" height="20mm" viewBox="0 0 20 20" xmlns:xlink="http://www.w3.org/1999/xlink" xmlns="http://www.w3.org/2000/svg"><defs><linearGradient id="a"><stop style="stop-color:#ff547c;stop-opacity:1" offset="0"/><stop style="stop-color:#ecd53a;stop-opacity:1" offset="1"/></linearGradient><linearGradient xlink:href="#a" id="b" x1="10" y1="12" x2="10" y2="2" gradientUnits="userSpaceOnUse"/></defs><path style="fill:url(#b);stroke-width:4;stroke-linecap:round;stroke-linejoin:round;paint-order:stroke markers fill;fill-opacity:1" d="M0 0h20v20H0z"/><path style="display:inline;fill:#15405b;fill-opacity:1;stroke-width:4;stroke-linecap:round;stroke-linejoin:round;paint-order:stroke markers fill" d="M0 10h20v10H0z"/><path style="display:inline;fill:#ffffcf;fill-opacity:1;stroke-width:15.1181;stroke-linecap:round;stroke-linejoin:round;paint-order:stroke markers fill" d="M37.795 18.898a18.898 18.898 0 0 0-18.5 15.118h37.014a18.898 18.898 0 0 0-18.514-15.118zM19.281 41.574a18.898 18.898 0 0 0 1.2 3.78h34.628a18.898 18.898 0 0 0 1.2-3.78zm3.412 7.56a18.898 18.898 0 0 0 3.793 3.78h22.618a18.898 18.898 0 0 0 3.792-3.78z" transform="scale(.26458)"/></svg>